REM DIRINDEX 1\2\4\18,1\2\4\19,1\2\5\20,1\2\5\21,1\2\6\22,1\2\7\23,1\2\8\24,1\2\8\25,1\2\9\26,1\2\10\27,1\3\11\28,1\3\11\29,1\3\11\30,1\3\11\31,1\3\12\32,1\3\12\33,1\3\12\34,1\3\12\35,1\3\13\36,1\3\13\37,1\3\14\38,1\3\14\39,1\3\15\40,1\3\15\41,1\3\15\42,1\3\16\43,1\3\16\44,1\3\17\45,1\3\17\46
REM DIRNAME folder01,folder02,folder03,folder04,folder05,folder06,folder07,folder08,folder09,folder10,folder11,folder12,folder13,folder14,folder15,folder16,folder17,folder18,folder19,folder20,folder21,folder22,folder23,folder24,folder25,folder26,folder27,folder28,folder29,folder30,folder31,folder32,folder33,folder34,folder35,folder36,folder37,folder38,folder39,folder40,folder41,folder42,folder43,folder44,folder45,folder46
TITLE ""
FILE "07.mp3" MP3
  TRACK 01 AUDIO
    TITLE "0:"
    INDEX 01 00:00:00
  TRACK 02 AUDIO
    TITLE "18:cjc024_1033"
    INDEX 01 00:00:13
  TRACK 03 AUDIO
    TITLE "0:"
    INDEX 01 00:01:21
  TRACK 04 AUDIO
    TITLE "19:cjc024_1034"
    INDEX 01 00:01:40
  TRACK 05 AUDIO
    TITLE "0:"
    INDEX 01 00:03:63
  TRACK 06 AUDIO
    TITLE "18:cjc024_1035"
    INDEX 01 00:04:66
  TRACK 07 AUDIO
    TITLE "0:"
    INDEX 01 00:06:00
  TRACK 08 AUDIO
    TITLE "19:cjc024_1036"
    INDEX 01 00:06:30
  TRACK 09 AUDIO
    TITLE "0:"
    INDEX 01 00:08:60
  TRACK 10 AUDIO
    TITLE "18:cjc024_1037"
    INDEX 01 00:09:59
  TRACK 11 AUDIO
    TITLE "0:"
    INDEX 01 00:11:11
  TRACK 12 AUDIO
    TITLE "19:cjc024_1038"
    INDEX 01 00:11:39
  TRACK 13 AUDIO
    TITLE "0:"
    INDEX 01 00:13:47
  TRACK 14 AUDIO
    TITLE "18:cjc024_1039"
    INDEX 01 00:14:49
  TRACK 15 AUDIO
    TITLE "0:"
    INDEX 01 00:15:60
  TRACK 16 AUDIO
    TITLE "19:cjc024_1040"
    INDEX 01 00:16:10
  TRACK 17 AUDIO
    TITLE "0:"
    INDEX 01 00:18:48
  TRACK 18 AUDIO
    TITLE "18:cjc024_1041"
    INDEX 01 00:19:54
  TRACK 19 AUDIO
    TITLE "0:"
    INDEX 01 00:20:69
  TRACK 20 AUDIO
    TITLE "19:cjc024_1042"
    INDEX 01 00:21:23
  TRACK 21 AUDIO
    TITLE "0:"
    INDEX 01 00:24:00
  TRACK 22 AUDIO
    TITLE "18:cjc024_1043"
    INDEX 01 00:25:07
  TRACK 23 AUDIO
    TITLE "0:"
    INDEX 01 00:26:22
  TRACK 24 AUDIO
    TITLE "19:cjc024_1044"
    INDEX 01 00:26:50
  TRACK 25 AUDIO
    TITLE "0:"
    INDEX 01 00:29:17
  TRACK 26 AUDIO
    TITLE "18:cjc024_1045"
    INDEX 01 00:30:20
  TRACK 27 AUDIO
    TITLE "0:"
    INDEX 01 00:31:35
  TRACK 28 AUDIO
    TITLE "19:cjc024_1046"
    INDEX 01 00:31:59
  TRACK 29 AUDIO
    TITLE "0:"
    INDEX 01 00:34:06
  TRACK 30 AUDIO
    TITLE "18:cjc024_1047"
    INDEX 01 00:35:06
  TRACK 31 AUDIO
    TITLE "0:"
    INDEX 01 00:36:11
  TRACK 32 AUDIO
    TITLE "19:cjc024_1048"
    INDEX 01 00:36:42
  TRACK 33 AUDIO
    TITLE "0:"
    INDEX 01 00:40:28
  TRACK 34 AUDIO
    TITLE "18:cjc024_1049"
    INDEX 01 00:41:30
  TRACK 35 AUDIO
    TITLE "0:"
    INDEX 01 00:42:43
  TRACK 36 AUDIO
    TITLE "19:cjc024_1050"
    INDEX 01 00:42:65
  TRACK 37 AUDIO
    TITLE "0:"
    INDEX 01 00:44:69
  TRACK 38 AUDIO
    TITLE "18:cjc024_1051"
    INDEX 01 00:45:71
  TRACK 39 AUDIO
    TITLE "0:"
    INDEX 01 00:47:21
  TRACK 40 AUDIO
    TITLE "19:cjc024_1052"
    INDEX 01 00:47:48
  TRACK 41 AUDIO
    TITLE "0:"
    INDEX 01 00:49:53
  TRACK 42 AUDIO
    TITLE "18:cjc024_1053"
    INDEX 01 00:50:58
  TRACK 43 AUDIO
    TITLE "0:"
    INDEX 01 00:52:02
  TRACK 44 AUDIO
    TITLE "19:cjc024_1054"
    INDEX 01 00:52:28
  TRACK 45 AUDIO
    TITLE "0:"
    INDEX 01 00:54:05
  TRACK 46 AUDIO
    TITLE "18:cjc024_1055"
    INDEX 01 00:55:04
  TRACK 47 AUDIO
    TITLE "0:"
    INDEX 01 00:56:06
  TRACK 48 AUDIO
    TITLE "19:cjc024_1056"
    INDEX 01 00:56:35
  TRACK 49 AUDIO
    TITLE "0:"
    INDEX 01 00:57:74
  TRACK 50 AUDIO
    TITLE "18:cjc024_1057"
    INDEX 01 00:59:00
  TRACK 51 AUDIO
    TITLE "0:"
    INDEX 01 01:00:39
  TRACK 52 AUDIO
    TITLE "19:cjc024_1058"
    INDEX 01 01:00:64
  TRACK 53 AUDIO
    TITLE "0:"
    INDEX 01 01:02:63
  TRACK 54 AUDIO
    TITLE "18:cjc024_1059"
    INDEX 01 01:03:65
  TRACK 55 AUDIO
    TITLE "0:"
    INDEX 01 01:04:74
  TRACK 56 AUDIO
    TITLE "19:cjc024_1060"
    INDEX 01 01:05:22
  TRACK 57 AUDIO
    TITLE "0:"
    INDEX 01 01:06:71
  TRACK 58 AUDIO
    TITLE "18:cjc024_1061"
    INDEX 01 01:07:70
  TRACK 59 AUDIO
    TITLE "0:"
    INDEX 01 01:09:14
  TRACK 60 AUDIO
    TITLE "19:cjc024_1062"
    INDEX 01 01:09:40
  TRACK 61 AUDIO
    TITLE "0:"
    INDEX 01 01:11:21
  TRACK 62 AUDIO
    TITLE "18:cjc024_1063"
    INDEX 01 01:12:21
  TRACK 63 AUDIO
    TITLE "0:"
    INDEX 01 01:13:44
  TRACK 64 AUDIO
    TITLE "19:cjc024_1064"
    INDEX 01 01:13:71
  TRACK 65 AUDIO
    TITLE "0:"
    INDEX 01 01:15:68
  TRACK 66 AUDIO
    TITLE "18:cjc024_1065"
    INDEX 01 01:16:67
  TRACK 67 AUDIO
    TITLE "0:"
    INDEX 01 01:18:09
  TRACK 68 AUDIO
    TITLE "19:cjc024_1066"
    INDEX 01 01:18:35
  TRACK 69 AUDIO
    TITLE "0:"
    INDEX 01 01:20:28
  TRACK 70 AUDIO
    TITLE "18:cjc024_1067"
    INDEX 01 01:21:27
  TRACK 71 AUDIO
    TITLE "0:"
    INDEX 01 01:22:39
  TRACK 72 AUDIO
    TITLE "19:cjc024_1068"
    INDEX 01 01:22:62
  TRACK 73 AUDIO
    TITLE "0:"
    INDEX 01 01:24:30
  TRACK 74 AUDIO
    TITLE "18:cjc024_1069"
    INDEX 01 01:25:31
  TRACK 75 AUDIO
    TITLE "0:"
    INDEX 01 01:26:52
  TRACK 76 AUDIO
    TITLE "19:cjc024_1070"
    INDEX 01 01:27:04
  TRACK 77 AUDIO
    TITLE "0:"
    INDEX 01 01:29:01
  TRACK 78 AUDIO
    TITLE "18:cjc024_1071"
    INDEX 01 01:30:07
  TRACK 79 AUDIO
    TITLE "0:"
    INDEX 01 01:31:16
  TRACK 80 AUDIO
    TITLE "19:cjc024_1072"
    INDEX 01 01:31:43
  TRACK 81 AUDIO
    TITLE "0:"
    INDEX 01 01:33:48
  TRACK 82 AUDIO
    TITLE "18:cjc024_1073"
    INDEX 01 01:34:54
  TRACK 83 AUDIO
    TITLE "0:"
    INDEX 01 01:35:69
  TRACK 84 AUDIO
    TITLE "19:cjc024_1074"
    INDEX 01 01:36:17
  TRACK 85 AUDIO
    TITLE "0:"
    INDEX 01 01:38:53
  TRACK 86 AUDIO
    TITLE "18:cjc024_1075"
    INDEX 01 01:39:59
  TRACK 87 AUDIO
    TITLE "0:"
    INDEX 01 01:40:64
  TRACK 88 AUDIO
    TITLE "19:cjc024_1076"
    INDEX 01 01:41:20
  TRACK 89 AUDIO
    TITLE "0:"
    INDEX 01 01:43:51
  TRACK 90 AUDIO
    TITLE "18:cjc024_1077"
    INDEX 01 01:44:50
  TRACK 91 AUDIO
    TITLE "0:"
    INDEX 01 01:45:49
  TRACK 92 AUDIO
    TITLE "19:cjc024_1078"
    INDEX 01 01:46:14
  TRACK 93 AUDIO
    TITLE "0:"
    INDEX 01 01:48:28
  TRACK 94 AUDIO
    TITLE "18:cjc024_1079"
    INDEX 01 01:49:30
  TRACK 95 AUDIO
    TITLE "0:"
    INDEX 01 01:50:45
  TRACK 96 AUDIO
    TITLE "19:cjc024_1080"
    INDEX 01 01:50:70
  TRACK 97 AUDIO
    TITLE "0:"
    INDEX 01 01:54:44
  TRACK 98 AUDIO
    TITLE "18:cjc024_1081"
    INDEX 01 01:55:46
  TRACK 99 AUDIO
    TITLE "0:"
    INDEX 01 01:56:51
  TRACK 100 AUDIO
    TITLE "19:cjc024_1082"
    INDEX 01 01:57:08
  TRACK 101 AUDIO
    TITLE "0:"
    INDEX 01 01:59:26
  TRACK 102 AUDIO
    TITLE "18:cjc024_1083"
    INDEX 01 02:00:35
  TRACK 103 AUDIO
    TITLE "0:"
    INDEX 01 02:01:52
  TRACK 104 AUDIO
    TITLE "19:cjc024_1084"
    INDEX 01 02:02:09
  TRACK 105 AUDIO
    TITLE "0:"
    INDEX 01 02:04:37
  TRACK 106 AUDIO
    TITLE "18:cjc024_1085"
    INDEX 01 02:05:62
  TRACK 107 AUDIO
    TITLE "0:"
    INDEX 01 02:07:04
  TRACK 108 AUDIO
    TITLE "19:cjc024_1086"
    INDEX 01 02:07:35
  TRACK 109 AUDIO
    TITLE "0:"
    INDEX 01 02:09:42
  TRACK 110 AUDIO
    TITLE "18:cjc024_1087"
    INDEX 01 02:10:42
  TRACK 111 AUDIO
    TITLE "0:"
    INDEX 01 02:11:47
  TRACK 112 AUDIO
    TITLE "19:cjc024_1088"
    INDEX 01 02:12:23
  TRACK 113 AUDIO
    TITLE "0:"
    INDEX 01 02:14:37
  TRACK 114 AUDIO
    TITLE "18:cjc024_1089"
    INDEX 01 02:15:43
  TRACK 115 AUDIO
    TITLE "0:"
    INDEX 01 02:16:52
  TRACK 116 AUDIO
    TITLE "19:cjc024_1090"
    INDEX 01 02:17:02
  TRACK 117 AUDIO
    TITLE "0:"
    INDEX 01 02:19:39
  TRACK 118 AUDIO
    TITLE "18:cjc024_1091"
    INDEX 01 02:20:38
  TRACK 119 AUDIO
    TITLE "0:"
    INDEX 01 02:21:45
  TRACK 120 AUDIO
    TITLE "19:cjc024_1092"
    INDEX 01 02:21:71
  TRACK 121 AUDIO
    TITLE "0:"
    INDEX 01 02:23:74
  TRACK 122 AUDIO
    TITLE "18:cjc024_1093"
    INDEX 01 02:25:00
  TRACK 123 AUDIO
    TITLE "0:"
    INDEX 01 02:26:17
  TRACK 124 AUDIO
    TITLE "19:cjc024_1094"
    INDEX 01 02:26:44
  TRACK 125 AUDIO
    TITLE "0:"
    INDEX 01 02:28:37
  TRACK 126 AUDIO
    TITLE "18:cjc024_1095"
    INDEX 01 02:29:43
  TRACK 127 AUDIO
    TITLE "0:"
    INDEX 01 02:31:04
  TRACK 128 AUDIO
    TITLE "19:cjc024_1096"
    INDEX 01 02:31:30
  TRACK 129 AUDIO
    TITLE "0:"
    INDEX 01 02:33:66
  TRACK 130 AUDIO
    TITLE "18:cjc024_1097"
    INDEX 01 02:34:67
  TRACK 131 AUDIO
    TITLE "0:"
    INDEX 01 02:36:06
  TRACK 132 AUDIO
    TITLE "19:cjc024_1098"
    INDEX 01 02:36:33
  TRACK 133 AUDIO
    TITLE "0:"
    INDEX 01 02:38:32
  TRACK 134 AUDIO
    TITLE "18:cjc024_1099"
    INDEX 01 02:39:33
  TRACK 135 AUDIO
    TITLE "0:"
    INDEX 01 02:40:52
  TRACK 136 AUDIO
    TITLE "19:cjc024_1100"
    INDEX 01 02:41:03
  TRACK 137 AUDIO
    TITLE "0:"
    INDEX 01 02:43:55
  TRACK 138 AUDIO
    TITLE "18:cjc024_1101"
    INDEX 01 02:44:56
  TRACK 139 AUDIO
    TITLE "0:"
    INDEX 01 02:45:71
  TRACK 140 AUDIO
    TITLE "19:cjc024_1102"
    INDEX 01 02:46:24
  TRACK 141 AUDIO
    TITLE "0:"
    INDEX 01 02:48:21
  TRACK 142 AUDIO
    TITLE "18:cjc024_1103"
    INDEX 01 02:49:20
  TRACK 143 AUDIO
    TITLE "0:"
    INDEX 01 02:50:41
  TRACK 144 AUDIO
    TITLE "19:cjc024_1104"
    INDEX 01 02:50:66
  TRACK 145 AUDIO
    TITLE "0:"
    INDEX 01 02:52:46
  TRACK 146 AUDIO
    TITLE "18:cjc024_1105"
    INDEX 01 02:53:51
  TRACK 147 AUDIO
    TITLE "0:"
    INDEX 01 02:54:64
  TRACK 148 AUDIO
    TITLE "19:cjc024_1106"
    INDEX 01 02:55:17
  TRACK 149 AUDIO
    TITLE "0:"
    INDEX 01 02:57:72
  TRACK 150 AUDIO
    TITLE "18:cjc024_1107"
    INDEX 01 02:58:74
  TRACK 151 AUDIO
    TITLE "0:"
    INDEX 01 02:59:73
  TRACK 152 AUDIO
    TITLE "19:cjc024_1108"
    INDEX 01 03:00:24
  TRACK 153 AUDIO
    TITLE "0:"
    INDEX 01 03:01:66
  TRACK 154 AUDIO
    TITLE "18:cjc024_1109"
    INDEX 01 03:02:68
  TRACK 155 AUDIO
    TITLE "0:"
    INDEX 01 03:03:71
  TRACK 156 AUDIO
    TITLE "19:cjc024_1110"
    INDEX 01 03:04:24
  TRACK 157 AUDIO
    TITLE "0:"
    INDEX 01 03:07:18
  TRACK 158 AUDIO
    TITLE "18:cjc024_1111"
    INDEX 01 03:08:21
  TRACK 159 AUDIO
    TITLE "0:"
    INDEX 01 03:09:15
  TRACK 160 AUDIO
    TITLE "19:cjc024_1112"
    INDEX 01 03:09:42
  TRACK 161 AUDIO
    TITLE "0:"
    INDEX 01 03:11:20
  TRACK 162 AUDIO
    TITLE "18:cjc024_1113"
    INDEX 01 03:12:13
  TRACK 163 AUDIO
    TITLE "0:"
    INDEX 01 03:13:21
  TRACK 164 AUDIO
    TITLE "19:cjc024_1114"
    INDEX 01 03:13:42
  TRACK 165 AUDIO
    TITLE "0:"
    INDEX 01 03:16:68
  TRACK 166 AUDIO
    TITLE "18:cjc024_1115"
    INDEX 01 03:17:69
  TRACK 167 AUDIO
    TITLE "0:"
    INDEX 01 03:18:73
  TRACK 168 AUDIO
    TITLE "19:cjc024_1116"
    INDEX 01 03:19:31
  TRACK 169 AUDIO
    TITLE "0:"
    INDEX 01 03:20:72
  TRACK 170 AUDIO
    TITLE "18:cjc024_1117"
    INDEX 01 03:22:02
  TRACK 171 AUDIO
    TITLE "0:"
    INDEX 01 03:22:74
  TRACK 172 AUDIO
    TITLE "19:cjc024_1118"
    INDEX 01 03:23:31
  TRACK 173 AUDIO
    TITLE "0:"
    INDEX 01 03:25:04
  TRACK 174 AUDIO
    TITLE "18:cjc024_1119"
    INDEX 01 03:26:25
  TRACK 175 AUDIO
    TITLE "0:"
    INDEX 01 03:27:34
  TRACK 176 AUDIO
    TITLE "19:cjc024_1120"
    INDEX 01 03:27:68
  TRACK 177 AUDIO
    TITLE "0:"
    INDEX 01 03:30:23
  TRACK 178 AUDIO
    TITLE "18:cjc024_1121"
    INDEX 01 03:31:26
  TRACK 179 AUDIO
    TITLE "0:"
    INDEX 01 03:32:30
  TRACK 180 AUDIO
    TITLE "19:cjc024_1122"
    INDEX 01 03:32:53
  TRACK 181 AUDIO
    TITLE "0:"
    INDEX 01 03:34:46
  TRACK 182 AUDIO
    TITLE "18:cjc024_1123"
    INDEX 01 03:35:46
  TRACK 183 AUDIO
    TITLE "0:"
    INDEX 01 03:36:67
  TRACK 184 AUDIO
    TITLE "19:cjc024_1124"
    INDEX 01 03:37:17
  TRACK 185 AUDIO
    TITLE "0:"
    INDEX 01 03:39:14
  TRACK 186 AUDIO
    TITLE "18:cjc024_1125"
    INDEX 01 03:40:17
  TRACK 187 AUDIO
    TITLE "0:"
    INDEX 01 03:41:36
  TRACK 188 AUDIO
    TITLE "19:cjc024_1126"
    INDEX 01 03:41:68
  TRACK 189 AUDIO
    TITLE "0:"
    INDEX 01 03:43:55
  TRACK 190 AUDIO
    TITLE "18:cjc024_1127"
    INDEX 01 03:44:60
  TRACK 191 AUDIO
    TITLE "0:"
    INDEX 01 03:45:69
  TRACK 192 AUDIO
    TITLE "19:cjc024_1128"
    INDEX 01 03:46:20
  TRACK 193 AUDIO
    TITLE "0:"
    INDEX 01 03:48:25
  TRACK 194 AUDIO
    TITLE "18:cjc024_1129"
    INDEX 01 03:49:22
  TRACK 195 AUDIO
    TITLE "0:"
    INDEX 01 03:50:35
  TRACK 196 AUDIO
    TITLE "19:cjc024_1130"
    INDEX 01 03:50:61
  TRACK 197 AUDIO
    TITLE "0:"
    INDEX 01 03:52:54
  TRACK 198 AUDIO
    TITLE "18:cjc024_1131"
    INDEX 01 03:53:67
  TRACK 199 AUDIO
    TITLE "0:"
    INDEX 01 03:55:05
  TRACK 200 AUDIO
    TITLE "19:cjc024_1132"
    INDEX 01 03:55:31
  TRACK 201 AUDIO
    TITLE "0:"
    INDEX 01 03:57:00
  TRACK 202 AUDIO
    TITLE "18:cjc024_1133"
    INDEX 01 03:58:00
  TRACK 203 AUDIO
    TITLE "0:"
    INDEX 01 03:59:09
  TRACK 204 AUDIO
    TITLE "19:cjc024_1134"
    INDEX 01 03:59:32
  TRACK 205 AUDIO
    TITLE "0:"
    INDEX 01 04:01:18
  TRACK 206 AUDIO
    TITLE "18:cjc024_1135"
    INDEX 01 04:02:17
  TRACK 207 AUDIO
    TITLE "0:"
    INDEX 01 04:03:32
  TRACK 208 AUDIO
    TITLE "19:cjc024_1136"
    INDEX 01 04:03:63
  TRACK 209 AUDIO
    TITLE "0:"
    INDEX 01 04:06:58
  TRACK 210 AUDIO
    TITLE "18:cjc024_1137"
    INDEX 01 04:07:57
  TRACK 211 AUDIO
    TITLE "0:"
    INDEX 01 04:08:61
  TRACK 212 AUDIO
    TITLE "19:cjc024_1138"
    INDEX 01 04:09:07
  TRACK 213 AUDIO
    TITLE "0:"
    INDEX 01 04:11:10
  TRACK 214 AUDIO
    TITLE "18:cjc024_1139"
    INDEX 01 04:12:08
  TRACK 215 AUDIO
    TITLE "0:"
    INDEX 01 04:13:15
  TRACK 216 AUDIO
    TITLE "19:cjc024_1140"
    INDEX 01 04:13:40
  TRACK 217 AUDIO
    TITLE "0:"
    INDEX 01 04:15:16
  TRACK 218 AUDIO
    TITLE "18:cjc024_1141"
    INDEX 01 04:16:15
  TRACK 219 AUDIO
    TITLE "0:"
    INDEX 01 04:17:22
  TRACK 220 AUDIO
    TITLE "19:cjc024_1142"
    INDEX 01 04:17:46
  TRACK 221 AUDIO
    TITLE "0:"
    INDEX 01 04:19:33
  TRACK 222 AUDIO
    TITLE "18:cjc024_1143"
    INDEX 01 04:20:33
  TRACK 223 AUDIO
    TITLE "0:"
    INDEX 01 04:21:50
  TRACK 224 AUDIO
    TITLE "19:cjc024_1144"
    INDEX 01 04:22:00
  TRACK 225 AUDIO
    TITLE "0:"
    INDEX 01 04:23:60
  TRACK 226 AUDIO
    TITLE "18:cjc024_1145"
    INDEX 01 04:24:60
  TRACK 227 AUDIO
    TITLE "0:"
    INDEX 01 04:25:71
  TRACK 228 AUDIO
    TITLE "19:cjc024_1146"
    INDEX 01 04:26:21
  TRACK 229 AUDIO
    TITLE "0:"
    INDEX 01 04:27:60
  TRACK 230 AUDIO
    TITLE "18:cjc024_1147"
    INDEX 01 04:28:60
  TRACK 231 AUDIO
    TITLE "0:"
    INDEX 01 04:29:69
  TRACK 232 AUDIO
    TITLE "19:cjc024_1148"
    INDEX 01 04:30:21
  TRACK 233 AUDIO
    TITLE "0:"
    INDEX 01 04:32:42
  TRACK 234 AUDIO
    TITLE "18:cjc024_1149"
    INDEX 01 04:33:43
  TRACK 235 AUDIO
    TITLE "0:"
    INDEX 01 04:34:54
  TRACK 236 AUDIO
    TITLE "19:cjc024_1150"
    INDEX 01 04:35:05
  TRACK 237 AUDIO
    TITLE "0:"
    INDEX 01 04:36:63
  TRACK 238 AUDIO
    TITLE "18:cjc024_1151"
    INDEX 01 04:37:62
  TRACK 239 AUDIO
    TITLE "0:"
    INDEX 01 04:38:74
  TRACK 240 AUDIO
    TITLE "19:cjc024_1152"
    INDEX 01 04:39:26
  TRACK 241 AUDIO
    TITLE "0:"
    INDEX 01 04:40:71
  TRACK 242 AUDIO
    TITLE "18:cjc024_1153"
    INDEX 01 04:41:72
  TRACK 243 AUDIO
    TITLE "0:"
    INDEX 01 04:43:12
  TRACK 244 AUDIO
    TITLE "19:cjc024_1154"
    INDEX 01 04:43:32
  TRACK 245 AUDIO
    TITLE "0:"
    INDEX 01 04:46:54
  TRACK 246 AUDIO
    TITLE "18:cjc024_1155"
    INDEX 01 04:47:51
  TRACK 247 AUDIO
    TITLE "0:"
    INDEX 01 04:48:52
  TRACK 248 AUDIO
    TITLE "19:cjc024_1156"
    INDEX 01 04:49:03
  TRACK 249 AUDIO
    TITLE "0:"
    INDEX 01 04:51:02
  TRACK 250 AUDIO
    TITLE "18:cjc024_1157"
    INDEX 01 04:52:01
  TRACK 251 AUDIO
    TITLE "0:"
    INDEX 01 04:53:24
  TRACK 252 AUDIO
    TITLE "19:cjc024_1158"
    INDEX 01 04:53:54
  TRACK 253 AUDIO
    TITLE "0:"
    INDEX 01 04:56:01
  TRACK 254 AUDIO
    TITLE "18:cjc024_1159"
    INDEX 01 04:57:16
  TRACK 255 AUDIO
    TITLE "0:"
    INDEX 01 04:58:35
  TRACK 256 AUDIO
    TITLE "19:cjc024_1160"
    INDEX 01 04:58:63
  TRACK 257 AUDIO
    TITLE "0:"
    INDEX 01 05:00:46
  TRACK 258 AUDIO
    TITLE "18:cjc024_1161"
    INDEX 01 05:01:47
  TRACK 259 AUDIO
    TITLE "0:"
    INDEX 01 05:02:62
  TRACK 260 AUDIO
    TITLE "19:cjc024_1162"
    INDEX 01 05:03:27
  TRACK 261 AUDIO
    TITLE "0:"
    INDEX 01 05:06:48
  TRACK 262 AUDIO
    TITLE "18:cjc024_1163"
    INDEX 01 05:07:50
  TRACK 263 AUDIO
    TITLE "0:"
    INDEX 01 05:09:02
  TRACK 264 AUDIO
    TITLE "19:cjc024_1164"
    INDEX 01 05:09:31
  TRACK 265 AUDIO
    TITLE "0:"
    INDEX 01 05:12:37
  TRACK 266 AUDIO
    TITLE "18:cjc024_1165"
    INDEX 01 05:13:37
  TRACK 267 AUDIO
    TITLE "0:"
    INDEX 01 05:14:62
  TRACK 268 AUDIO
    TITLE "19:cjc024_1166"
    INDEX 01 05:15:14
  TRACK 269 AUDIO
    TITLE "0:"
    INDEX 01 05:17:09
  TRACK 270 AUDIO
    TITLE "18:cjc024_1167"
    INDEX 01 05:18:14
  TRACK 271 AUDIO
    TITLE "0:"
    INDEX 01 05:19:37
  TRACK 272 AUDIO
    TITLE "19:cjc024_1168"
    INDEX 01 05:19:63
  TRACK 273 AUDIO
    TITLE "0:"
    INDEX 01 05:22:02
  TRACK 274 AUDIO
    TITLE "18:cjc024_1169"
    INDEX 01 05:23:02
  TRACK 275 AUDIO
    TITLE "0:"
    INDEX 01 05:24:21
  TRACK 276 AUDIO
    TITLE "19:cjc024_1170"
    INDEX 01 05:24:52
  TRACK 277 AUDIO
    TITLE "0:"
    INDEX 01 05:26:57
  TRACK 278 AUDIO
    TITLE "18:cjc024_1171"
    INDEX 01 05:27:58
  TRACK 279 AUDIO
    TITLE "0:"
    INDEX 01 05:29:08
  TRACK 280 AUDIO
    TITLE "19:cjc024_1172"
    INDEX 01 05:29:36
  TRACK 281 AUDIO
    TITLE "0:"
    INDEX 01 05:31:40
  TRACK 282 AUDIO
    TITLE "18:cjc024_1173"
    INDEX 01 05:32:42
  TRACK 283 AUDIO
    TITLE "0:"
    INDEX 01 05:33:47
  TRACK 284 AUDIO
    TITLE "19:cjc024_1174"
    INDEX 01 05:34:00
  TRACK 285 AUDIO
    TITLE "0:"
    INDEX 01 05:36:63
  TRACK 286 AUDIO
    TITLE "18:cjc024_1175"
    INDEX 01 05:37:63
  TRACK 287 AUDIO
    TITLE "0:"
    INDEX 01 05:39:03
  TRACK 288 AUDIO
    TITLE "19:cjc024_1176"
    INDEX 01 05:39:32
  TRACK 289 AUDIO
    TITLE "0:"
    INDEX 01 05:41:15
  TRACK 290 AUDIO
    TITLE "18:cjc024_1177"
    INDEX 01 05:42:13
  TRACK 291 AUDIO
    TITLE "0:"
    INDEX 01 05:43:28
  TRACK 292 AUDIO
    TITLE "19:cjc024_1178"
    INDEX 01 05:43:53
  TRACK 293 AUDIO
    TITLE "0:"
    INDEX 01 05:46:30
  TRACK 294 AUDIO
    TITLE "18:cjc024_1179"
    INDEX 01 05:47:30
  TRACK 295 AUDIO
    TITLE "0:"
    INDEX 01 05:48:51
  TRACK 296 AUDIO
    TITLE "19:cjc024_1180"
    INDEX 01 05:49:03
  TRACK 297 AUDIO
    TITLE "0:"
    INDEX 01 05:51:29
  TRACK 298 AUDIO
    TITLE "18:cjc024_1181"
    INDEX 01 05:52:27
  TRACK 299 AUDIO
    TITLE "0:"
    INDEX 01 05:53:36
  TRACK 300 AUDIO
    TITLE "19:cjc024_1182"
    INDEX 01 05:53:62
  TRACK 301 AUDIO
    TITLE "0:"
    INDEX 01 05:55:25
  TRACK 302 AUDIO
    TITLE "18:cjc024_1183"
    INDEX 01 05:56:25
  TRACK 303 AUDIO
    TITLE "0:"
    INDEX 01 05:57:40
  TRACK 304 AUDIO
    TITLE "19:cjc024_1184"
    INDEX 01 05:57:65
  TRACK 305 AUDIO
    TITLE "0:"
    INDEX 01 06:00:03
  TRACK 306 AUDIO
    TITLE "18:cjc024_1185"
    INDEX 01 06:01:02
  TRACK 307 AUDIO
    TITLE "0:"
    INDEX 01 06:02:14
  TRACK 308 AUDIO
    TITLE "19:cjc024_1186"
    INDEX 01 06:02:37
  TRACK 309 AUDIO
    TITLE "0:"
    INDEX 01 06:04:61
  TRACK 310 AUDIO
    TITLE "18:cjc024_1187"
    INDEX 01 06:05:63
  TRACK 311 AUDIO
    TITLE "0:"
    INDEX 01 06:07:17
  TRACK 312 AUDIO
    TITLE "19:cjc024_1188"
    INDEX 01 06:07:46
  TRACK 313 AUDIO
    TITLE "0:"
    INDEX 01 06:10:37
  TRACK 314 AUDIO
    TITLE "18:cjc024_1189"
    INDEX 01 06:11:38
  TRACK 315 AUDIO
    TITLE "0:"
    INDEX 01 06:12:43
  TRACK 316 AUDIO
    TITLE "19:cjc024_1190"
    INDEX 01 06:12:71
  TRACK 317 AUDIO
    TITLE "0:"
    INDEX 01 06:14:46
  TRACK 318 AUDIO
    TITLE "18:cjc024_1191"
    INDEX 01 06:15:48
  TRACK 319 AUDIO
    TITLE "0:"
    INDEX 01 06:16:61
  TRACK 320 AUDIO
    TITLE "19:cjc024_1192"
    INDEX 01 06:17:11
  TRACK 321 AUDIO
    TITLE "0:"
    INDEX 01 06:18:58
  TRACK 322 AUDIO
    TITLE "18:cjc024_1193"
    INDEX 01 06:19:61
  TRACK 323 AUDIO
    TITLE "0:"
    INDEX 01 06:21:11
  TRACK 324 AUDIO
    TITLE "19:cjc024_1194"
    INDEX 01 06:21:34
  TRACK 325 AUDIO
    TITLE "0:"
    INDEX 01 06:23:22
  TRACK 326 AUDIO
    TITLE "18:cjc024_1195"
    INDEX 01 06:24:25
  TRACK 327 AUDIO
    TITLE "0:"
    INDEX 01 06:25:52
  TRACK 328 AUDIO
    TITLE "19:cjc024_1196"
    INDEX 01 06:26:02
  TRACK 329 AUDIO
    TITLE "0:"
    INDEX 01 06:28:17
  TRACK 330 AUDIO
    TITLE "18:cjc024_1197"
    INDEX 01 06:29:16
  TRACK 331 AUDIO
    TITLE "0:"
    INDEX 01 06:30:12
  TRACK 332 AUDIO
    TITLE "19:cjc024_1198"
    INDEX 01 06:30:37
  TRACK 333 AUDIO
    TITLE "0:"
    INDEX 01 06:31:64
  TRACK 334 AUDIO
    TITLE "18:cjc024_1199"
    INDEX 01 06:32:64
  TRACK 335 AUDIO
    TITLE "0:"
    INDEX 01 06:34:29
  TRACK 336 AUDIO
    TITLE "19:cjc024_1200"
    INDEX 01 06:34:57
  TRACK 337 AUDIO
    TITLE "0:"
    INDEX 01 06:37:63
  TRACK 338 AUDIO
    TITLE "18:cjc024_1201"
    INDEX 01 06:39:01
  TRACK 339 AUDIO
    TITLE "0:"
    INDEX 01 06:40:20
  TRACK 340 AUDIO
    TITLE "19:cjc024_1202"
    INDEX 01 06:40:48
  TRACK 341 AUDIO
    TITLE "0:"
    INDEX 01 06:42:60
  TRACK 342 AUDIO
    TITLE "18:cjc024_1203"
    INDEX 01 06:43:63
  TRACK 343 AUDIO
    TITLE "0:"
    INDEX 01 06:44:65
  TRACK 344 AUDIO
    TITLE "19:cjc024_1204"
    INDEX 01 06:45:13
  TRACK 345 AUDIO
    TITLE "0:"
    INDEX 01 06:47:30
  TRACK 346 AUDIO
    TITLE "18:cjc024_1205"
    INDEX 01 06:48:31
  TRACK 347 AUDIO
    TITLE "0:"
    INDEX 01 06:49:27
  TRACK 348 AUDIO
    TITLE "19:cjc024_1206"
    INDEX 01 06:49:52
  TRACK 349 AUDIO
    TITLE "0:"
    INDEX 01 06:51:30
  TRACK 350 AUDIO
    TITLE "18:cjc024_1207"
    INDEX 01 06:52:31
  TRACK 351 AUDIO
    TITLE "0:"
    INDEX 01 06:53:34
  TRACK 352 AUDIO
    TITLE "19:cjc024_1208"
    INDEX 01 06:53:68
  TRACK 353 AUDIO
    TITLE "0:"
    INDEX 01 06:56:47
  TRACK 354 AUDIO
    TITLE "18:cjc024_1209"
    INDEX 01 06:57:46
  TRACK 355 AUDIO
    TITLE "0:"
    INDEX 01 06:58:65
  TRACK 356 AUDIO
    TITLE "19:cjc024_1210"
    INDEX 01 06:59:15
  TRACK 357 AUDIO
    TITLE "0:"
    INDEX 01 07:01:48
  TRACK 358 AUDIO
    TITLE "18:cjc024_1211"
    INDEX 01 07:02:47
  TRACK 359 AUDIO
    TITLE "0:"
    INDEX 01 07:04:15
  TRACK 360 AUDIO
    TITLE "19:cjc024_1212"
    INDEX 01 07:04:38
  TRACK 361 AUDIO
    TITLE "0:"
    INDEX 01 07:08:03
  TRACK 362 AUDIO
    TITLE "18:cjc024_1213"
    INDEX 01 07:08:73
  TRACK 363 AUDIO
    TITLE "0:"
    INDEX 01 07:10:06
  TRACK 364 AUDIO
    TITLE "19:cjc024_1214"
    INDEX 01 07:10:29
  TRACK 365 AUDIO
    TITLE "0:"
    INDEX 01 07:12:22
  TRACK 366 AUDIO
    TITLE "18:cjc024_1215"
    INDEX 01 07:13:23
  TRACK 367 AUDIO
    TITLE "0:"
    INDEX 01 07:14:21
  TRACK 368 AUDIO
    TITLE "19:cjc024_1216"
    INDEX 01 07:14:48
  TRACK 369 AUDIO
    TITLE "0:"
    INDEX 01 07:16:55
  TRACK 370 AUDIO
    TITLE "18:cjc024_1217"
    INDEX 01 07:17:64
  TRACK 371 AUDIO
    TITLE "0:"
    INDEX 01 07:19:03
  TRACK 372 AUDIO
    TITLE "19:cjc024_1218"
    INDEX 01 07:19:26
  TRACK 373 AUDIO
    TITLE "0:"
    INDEX 01 07:21:37
  TRACK 374 AUDIO
    TITLE "18:cjc024_1219"
    INDEX 01 07:22:36
  TRACK 375 AUDIO
    TITLE "0:"
    INDEX 01 07:23:63
  TRACK 376 AUDIO
    TITLE "19:cjc024_1220"
    INDEX 01 07:24:13
  TRACK 377 AUDIO
    TITLE "0:"
    INDEX 01 07:27:00
  TRACK 378 AUDIO
    TITLE "18:cjc024_1221"
    INDEX 01 07:28:00
  TRACK 379 AUDIO
    TITLE "0:"
    INDEX 01 07:29:11
  TRACK 380 AUDIO
    TITLE "19:cjc024_1222"
    INDEX 01 07:29:38
  TRACK 381 AUDIO
    TITLE "0:"
    INDEX 01 07:31:57
  TRACK 382 AUDIO
    TITLE "18:cjc024_1223"
    INDEX 01 07:32:58
  TRACK 383 AUDIO
    TITLE "0:"
    INDEX 01 07:33:69
  TRACK 384 AUDIO
    TITLE "19:cjc024_1224"
    INDEX 01 07:34:18
  TRACK 385 AUDIO
    TITLE "0:"
    INDEX 01 07:35:54
  TRACK 386 AUDIO
    TITLE "18:cjc024_1225"
    INDEX 01 07:36:56
  TRACK 387 AUDIO
    TITLE "0:"
    INDEX 01 07:37:67
  TRACK 388 AUDIO
    TITLE "19:cjc024_1226"
    INDEX 01 07:38:18
  TRACK 389 AUDIO
    TITLE "0:"
    INDEX 01 07:39:74
  TRACK 390 AUDIO
    TITLE "18:cjc024_1227"
    INDEX 01 07:41:00
  TRACK 391 AUDIO
    TITLE "0:"
    INDEX 01 07:42:17
  TRACK 392 AUDIO
    TITLE "19:cjc024_1228"
    INDEX 01 07:42:43
  TRACK 393 AUDIO
    TITLE "0:"
    INDEX 01 07:44:40
  TRACK 394 AUDIO
    TITLE "18:cjc024_1229"
    INDEX 01 07:45:45
  TRACK 395 AUDIO
    TITLE "0:"
    INDEX 01 07:46:58
  TRACK 396 AUDIO
    TITLE "19:cjc024_1230"
    INDEX 01 07:47:07
  TRACK 397 AUDIO
    TITLE "0:"
    INDEX 01 07:49:02
  TRACK 398 AUDIO
    TITLE "18:cjc024_1231"
    INDEX 01 07:50:03
  TRACK 399 AUDIO
    TITLE "0:"
    INDEX 01 07:51:06
  TRACK 400 AUDIO
    TITLE "19:cjc024_1232"
    INDEX 01 07:51:32
  TRACK 401 AUDIO
    TITLE "0:"
    INDEX 01 07:53:11
